<?xml version="1.0" encoding="utf-8"?>
<!-- Generator: Adobe Illustrator 18.1.1, SVG Export Plug-In . SVG Version: 6.00 Build 0)  -->
<!DOCTYPE svg PUBLIC "-//W3C//DTD SVG 1.1//EN" "http://www.w3.org/Graphics/SVG/1.1/DTD/svg11.dtd">
<svg version="1.1" id="Layer_1" xmlns="http://www.w3.org/2000/svg" xmlns:xlink="http://www.w3.org/1999/xlink" x="0px" y="0px"
	 viewBox="0 0 1157.4 792" enable-background="new 0 0 1157.4 792" xml:space="preserve">
<g>
	<ellipse fill="#95A79D" cx="787.8" cy="174.8" rx="10.5" ry="11"/>
	<polyline fill="none" stroke="#95A79D" stroke-width="21.1082" stroke-miterlimit="10" points="737.2,177.8 384.3,177.8 
		290.9,498.8 	"/>
	<line fill="none" stroke="#95A79D" stroke-width="21.1082" stroke-miterlimit="10" x1="728.4" y1="171.8" x2="859.9" y2="499.2"/>
	<line fill="none" stroke="#95A79D" stroke-width="21" stroke-miterlimit="10" x1="769.3" y1="251.1" x2="286.3" y2="500.8"/>
	<line fill="none" stroke="#95A79D" stroke-width="21.1082" stroke-miterlimit="10" x1="730.8" y1="177.8" x2="710.6" y2="128"/>
	<path fill="none" stroke="#95A79D" stroke-width="21.1082" stroke-miterlimit="10" d="M712,131.4c0,0-16.3-38.6,35.4-23.3
		s72.1,9.1,72.8,31s-11.9,44.8-31.8,35.6"/>
	<line fill="none" stroke="#FFFFFF" stroke-width="1.5286" stroke-miterlimit="10" x1="684.7" y1="364.8" x2="855.1" y2="514"/>
	<line fill="none" stroke="#FFFFFF" stroke-width="1.5286" stroke-miterlimit="10" x1="671.4" y1="391.4" x2="868.1" y2="487.8"/>
	<line fill="none" stroke="#FFFFFF" stroke-width="1.5286" stroke-miterlimit="10" x1="721.7" y1="320.4" x2="874.5" y2="496.2"/>
	<line fill="none" stroke="#FFFFFF" stroke-width="1.5286" stroke-miterlimit="10" x1="746.9" y1="305.6" x2="847.9" y2="505.8"/>
	<line fill="none" stroke="#FFFFFF" stroke-width="1.5286" stroke-miterlimit="10" x1="800" y1="287.1" x2="865.5" y2="500.1"/>
	<line fill="none" stroke="#FFFFFF" stroke-width="1.5286" stroke-miterlimit="10" x1="818.9" y1="275.6" x2="851.1" y2="500.7"/>
	<line fill="none" stroke="#FFFFFF" stroke-width="1.5286" stroke-miterlimit="10" x1="883.6" y1="274.2" x2="871.4" y2="501.3"/>
	<line fill="none" stroke="#FFFFFF" stroke-width="1.5286" stroke-miterlimit="10" x1="907.8" y1="284.8" x2="846.1" y2="497.2"/>
	<line fill="none" stroke="#FFFFFF" stroke-width="1.5286" stroke-miterlimit="10" x1="950.6" y1="311.5" x2="867.3" y2="509.8"/>
	<line fill="none" stroke="#FFFFFF" stroke-width="1.5286" stroke-miterlimit="10" x1="983.3" y1="303.7" x2="849.9" y2="498.2"/>
	<line fill="none" stroke="#FFFFFF" stroke-width="1.5286" stroke-miterlimit="10" x1="1035.6" y1="364.8" x2="866" y2="507.6"/>
	<line fill="none" stroke="#FFFFFF" stroke-width="1.5286" stroke-miterlimit="10" x1="1049" y1="393.1" x2="857.1" y2="487.8"/>
	<line fill="none" stroke="#FFFFFF" stroke-width="1.5286" stroke-miterlimit="10" x1="1065.2" y1="441" x2="862.2" y2="511"/>
	<line fill="none" stroke="#FFFFFF" stroke-width="1.5286" stroke-miterlimit="10" x1="1078" y1="465" x2="862.8" y2="488.3"/>
	<line fill="none" stroke="#FFFFFF" stroke-width="1.5286" stroke-miterlimit="10" x1="1065.2" y1="552.8" x2="866" y2="488.9"/>
	<line fill="none" stroke="#FFFFFF" stroke-width="1.5286" stroke-miterlimit="10" x1="1073.3" y1="539.1" x2="849.8" y2="502.6"/>
	<line fill="none" stroke="#FFFFFF" stroke-width="1.5286" stroke-miterlimit="10" x1="1035.6" y1="631.3" x2="865" y2="487"/>
	<line fill="none" stroke="#FFFFFF" stroke-width="1.5286" stroke-miterlimit="10" x1="1049.8" y1="606.6" x2="847.9" y2="505.8"/>
	<line fill="none" stroke="#FFFFFF" stroke-width="1.5286" stroke-miterlimit="10" x1="973.4" y1="686" x2="872.6" y2="492.7"/>
	<line fill="none" stroke="#FFFFFF" stroke-width="1.5286" stroke-miterlimit="10" x1="997.6" y1="668.8" x2="852.5" y2="502.8"/>
	<line fill="none" stroke="#FFFFFF" stroke-width="1.5286" stroke-miterlimit="10" x1="888" y1="720.3" x2="872.1" y2="492.9"/>
	<line fill="none" stroke="#FFFFFF" stroke-width="1.5286" stroke-miterlimit="10" x1="914.1" y1="708.2" x2="846.1" y2="501.9"/>
	<line fill="none" stroke="#FFFFFF" stroke-width="1.5286" stroke-miterlimit="10" x1="826" y1="716.6" x2="848.9" y2="489.7"/>
	<line fill="none" stroke="#FFFFFF" stroke-width="1.5286" stroke-miterlimit="10" x1="804.4" y1="703.7" x2="874.3" y2="496.1"/>
	<line fill="none" stroke="#FFFFFF" stroke-width="1.5286" stroke-miterlimit="10" x1="746.9" y1="686" x2="851.9" y2="487.8"/>
	<line fill="none" stroke="#FFFFFF" stroke-width="1.5286" stroke-miterlimit="10" x1="721.7" y1="671.9" x2="874.3" y2="501.9"/>
	<line fill="none" stroke="#FFFFFF" stroke-width="1.5286" stroke-miterlimit="10" x1="684.7" y1="627" x2="851.9" y2="487.8"/>
	<line fill="none" stroke="#FFFFFF" stroke-width="1.5286" stroke-miterlimit="10" x1="671.4" y1="606.6" x2="867.3" y2="509.8"/>
	<line fill="none" stroke="#FFFFFF" stroke-width="1.5286" stroke-miterlimit="10" x1="643.4" y1="540.5" x2="859.8" y2="505.1"/>
	<line fill="none" stroke="#FFFFFF" stroke-width="1.5286" stroke-miterlimit="10" x1="653.6" y1="552.8" x2="862.2" y2="485.8"/>
	<line fill="none" stroke="#FFFFFF" stroke-width="1.5286" stroke-miterlimit="10" x1="645.5" y1="456.5" x2="854.8" y2="492.7"/>
	<line fill="none" stroke="#FFFFFF" stroke-width="1.5286" stroke-miterlimit="10" x1="641.8" y1="441" x2="863.4" y2="514"/>
	<circle fill="none" stroke="#EF4136" stroke-width="26.7517" stroke-miterlimit="10" cx="859.6" cy="499.3" r="219.8"/>
	<circle fill="#FFFFFF" stroke="#EF4136" stroke-width="9.1716" stroke-miterlimit="10" cx="859.6" cy="499.3" r="10.4"/>
	<g>
		<line fill="none" stroke="#FFFFFF" stroke-width="1.5286" stroke-miterlimit="10" x1="115.9" y1="364.3" x2="286.3" y2="513.5"/>
		<line fill="none" stroke="#FFFFFF" stroke-width="1.5286" stroke-miterlimit="10" x1="102.6" y1="390.9" x2="299.4" y2="487.3"/>
		<line fill="none" stroke="#FFFFFF" stroke-width="1.5286" stroke-miterlimit="10" x1="153" y1="319.9" x2="305.7" y2="495.7"/>
		<line fill="none" stroke="#FFFFFF" stroke-width="1.5286" stroke-miterlimit="10" x1="178.1" y1="305.1" x2="279.1" y2="505.3"/>
		<line fill="none" stroke="#FFFFFF" stroke-width="1.5286" stroke-miterlimit="10" x1="231.3" y1="286.6" x2="296.7" y2="499.6"/>
		<line fill="none" stroke="#FFFFFF" stroke-width="1.5286" stroke-miterlimit="10" x1="250.1" y1="275.1" x2="282.3" y2="500.2"/>
		<line fill="none" stroke="#FFFFFF" stroke-width="1.5286" stroke-miterlimit="10" x1="314.8" y1="273.6" x2="302.6" y2="500.8"/>
		<line fill="none" stroke="#FFFFFF" stroke-width="1.5286" stroke-miterlimit="10" x1="339" y1="284.2" x2="277.3" y2="496.7"/>
		<line fill="none" stroke="#FFFFFF" stroke-width="1.5286" stroke-miterlimit="10" x1="381.9" y1="311" x2="298.5" y2="509.2"/>
		<line fill="none" stroke="#FFFFFF" stroke-width="1.5286" stroke-miterlimit="10" x1="414.5" y1="303.2" x2="281.2" y2="497.6"/>
		<line fill="none" stroke="#FFFFFF" stroke-width="1.5286" stroke-miterlimit="10" x1="466.8" y1="364.3" x2="297.2" y2="507.1"/>
		<line fill="none" stroke="#FFFFFF" stroke-width="1.5286" stroke-miterlimit="10" x1="480.3" y1="392.6" x2="288.3" y2="487.3"/>
		<line fill="none" stroke="#FFFFFF" stroke-width="1.5286" stroke-miterlimit="10" x1="496.4" y1="440.5" x2="293.4" y2="510.4"/>
		<line fill="none" stroke="#FFFFFF" stroke-width="1.5286" stroke-miterlimit="10" x1="509.2" y1="464.5" x2="294" y2="487.8"/>
		<line fill="none" stroke="#FFFFFF" stroke-width="1.5286" stroke-miterlimit="10" x1="496.4" y1="552.3" x2="297.2" y2="488.4"/>
		<line fill="none" stroke="#FFFFFF" stroke-width="1.5286" stroke-miterlimit="10" x1="504.6" y1="538.5" x2="281" y2="502.1"/>
		<line fill="none" stroke="#FFFFFF" stroke-width="1.5286" stroke-miterlimit="10" x1="466.8" y1="630.7" x2="296.2" y2="486.5"/>
		<line fill="none" stroke="#FFFFFF" stroke-width="1.5286" stroke-miterlimit="10" x1="481" y1="606.1" x2="279.1" y2="505.3"/>
		<line fill="none" stroke="#FFFFFF" stroke-width="1.5286" stroke-miterlimit="10" x1="404.6" y1="685.5" x2="303.8" y2="492.2"/>
		<line fill="none" stroke="#FFFFFF" stroke-width="1.5286" stroke-miterlimit="10" x1="428.8" y1="668.3" x2="283.7" y2="502.2"/>
		<line fill="none" stroke="#FFFFFF" stroke-width="1.5286" stroke-miterlimit="10" x1="319.3" y1="719.8" x2="303.4" y2="492.4"/>
		<line fill="none" stroke="#FFFFFF" stroke-width="1.5286" stroke-miterlimit="10" x1="345.3" y1="707.7" x2="277.3" y2="501.4"/>
		<line fill="none" stroke="#FFFFFF" stroke-width="1.5286" stroke-miterlimit="10" x1="257.2" y1="716.1" x2="280.2" y2="489.1"/>
		<line fill="none" stroke="#FFFFFF" stroke-width="1.5286" stroke-miterlimit="10" x1="235.6" y1="703.2" x2="305.6" y2="495.5"/>
		<line fill="none" stroke="#FFFFFF" stroke-width="1.5286" stroke-miterlimit="10" x1="178.1" y1="685.5" x2="283.2" y2="487.3"/>
		<line fill="none" stroke="#FFFFFF" stroke-width="1.5286" stroke-miterlimit="10" x1="153" y1="671.3" x2="305.6" y2="501.4"/>
		<line fill="none" stroke="#FFFFFF" stroke-width="1.5286" stroke-miterlimit="10" x1="115.9" y1="626.5" x2="283.2" y2="487.3"/>
		<line fill="none" stroke="#FFFFFF" stroke-width="1.5286" stroke-miterlimit="10" x1="102.6" y1="606.1" x2="298.5" y2="509.2"/>
		<line fill="none" stroke="#FFFFFF" stroke-width="1.5286" stroke-miterlimit="10" x1="74.6" y1="540" x2="291" y2="504.6"/>
		<line fill="none" stroke="#FFFFFF" stroke-width="1.5286" stroke-miterlimit="10" x1="84.9" y1="552.3" x2="293.4" y2="485.3"/>
		<line fill="none" stroke="#FFFFFF" stroke-width="1.5286" stroke-miterlimit="10" x1="76.7" y1="456" x2="286" y2="492.2"/>
		<line fill="none" stroke="#FFFFFF" stroke-width="1.5286" stroke-miterlimit="10" x1="73" y1="440.5" x2="294.7" y2="513.5"/>
		<circle fill="none" stroke="#EF4136" stroke-width="26.7517" stroke-miterlimit="10" cx="290.9" cy="498.8" r="219.8"/>
		<circle fill="#FFFFFF" stroke="#EF4136" stroke-width="9.1716" stroke-miterlimit="10" cx="290.9" cy="498.8" r="10.4"/>
	</g>
	<line fill="none" stroke="#95A79D" stroke-width="21.1082" stroke-miterlimit="10" x1="384.3" y1="177.8" x2="364" y2="115.8"/>
	<path fill="#EF4136" d="M318.4,109.6c3.5,3.8,11,6.9,31.6,11.4s36-9.1,57.5-15.2s31.4-1.5,35-7.6s-20.6-9.3-22.7-9.7
		s-26.1,0.4-30.8,0c-4.7-0.4-9.5,0.6-16.6-2.6c-7.1-3.1-16.6-6.2-21.6-6.2c-5,0-14.2,0.4-19.7,3.1c-5.5,2.7-14.7,4.7-16.2,10.7
		C313.4,99.7,315.8,106.8,318.4,109.6z"/>
	<path fill="#F2675E" d="M318.5,106.9c3,2.6,17.5,9.1,21.6,9.9c4.1,0.8,12.6,3.1,18.6,2.6c6-0.5,14.9-3.3,19.8-5s17.7-6.8,20.9-7.5
		s15.1-4.3,15.1-4.3s-9.3-1.3-13.1-0.8c-3.8,0.6-23.6,4.8-27.4,5.3c-3.8,0.5-23.3,1-32.6-1.6c-9.3-2.6-13.8-5.4-18-5.7
		c-4.3-0.3-6.8-0.8-6.8,2C316.9,104.6,317.2,105.8,318.5,106.9z"/>
	<path fill="#F2675E" d="M728.4,675.7c0,0-50.2-39.6-62.9-59.7c-12.7-20.1-29.4-54.1-32.1-102s8.4-78.4,8.4-78.4
		s-0.8,84.7,5.8,109.4c6.1,22.6,13.6,38.5,23.8,58.1C681.6,622.7,728.4,675.7,728.4,675.7z"/>
	<path fill="#F2675E" d="M216.3,285.7c0,0,61.5-17.5,85.2-16.1c23.7,1.4,61.1,7.7,101.5,33.6c40.4,25.8,58.7,52.6,58.7,52.6
		s-68.2-50.2-92.1-59.3c-21.9-8.3-39.2-11.5-61-14.6C286.7,278.7,216.3,285.7,216.3,285.7z"/>
</g>
</svg>
